HIERARCHY
ROOT Hips
{
	OFFSET 0.00000 0.00000 0.00000
	CHANNELS 6 Xposition Yposition Zposition Zrotation Yrotation Xrotation 
	JOINT LHipJoint
	{
		OFFSET 0 0 0
		CHANNELS 3 Zrotation Yrotation Xrotation
		JOINT LeftUpLeg
		{
			OFFSET 1.54859 -1.61379 0.86856
			CHANNELS 3 Zrotation Yrotation Xrotation
			JOINT LeftLeg
			{
				OFFSET 2.25087 -6.18423 0.00000
				CHANNELS 3 Zrotation Yrotation Xrotation
				JOINT LeftFoot
				{
					OFFSET 2.40328 -6.60297 0.00000
					CHANNELS 3 Zrotation Yrotation Xrotation
					JOINT LeftToeBase
					{
						OFFSET 0.17435 -0.47901 2.02453
						CHANNELS 3 Zrotation Yrotation Xrotation
						End Site
						{
							OFFSET 0.00000 -0.00000 1.04844
						}
					}
				}
			}
		}
	}
	JOINT RHipJoint
	{
		OFFSET 0 0 0
		CHANNELS 3 Zrotation Yrotation Xrotation
		JOINT RightUpLeg
		{
			OFFSET -1.54669 -1.61379 0.86856
			CHANNELS 3 Zrotation Yrotation Xrotation
			JOINT RightLeg
			{
				OFFSET -2.28132 -6.26789 0.00000
				CHANNELS 3 Zrotation Yrotation Xrotation
				JOINT RightFoot
				{
					OFFSET -2.51636 -6.91365 0.00000
					CHANNELS 3 Zrotation Yrotation Xrotation
					JOINT RightToeBase
					{
						OFFSET -0.15124 -0.41552 2.21090
						CHANNELS 3 Zrotation Yrotation Xrotation
						End Site
						{
							OFFSET -0.00000 -0.00000 1.13399
						}
					}
				}
			}
		}
	}
	JOINT LowerBack
	{
		OFFSET 0 0 0
		CHANNELS 3 Zrotation Yrotation Xrotation
		JOINT Spine
		{
			OFFSET -0.04287 2.26161 -0.25690
			CHANNELS 3 Zrotation Yrotation Xrotation
			JOINT Spine1
			{
				OFFSET 0.02248 2.28395 -0.10140
				CHANNELS 3 Zrotation Yrotation Xrotation
				JOINT Neck
				{
					OFFSET 0 0 0
					CHANNELS 3 Zrotation Yrotation Xrotation
					JOINT Neck1
					{
						OFFSET -0.11644 1.38496 0.11345
						CHANNELS 3 Zrotation Yrotation Xrotation
						JOINT Head
						{
							OFFSET 0.29383 1.36600 0.06642
							CHANNELS 3 Zrotation Yrotation Xrotation
							End Site
							{
								OFFSET 0.11075 1.41395 -0.00294
							}
						}
					}
				}
				JOINT LeftShoulder
				{
					OFFSET 0 0 0
					CHANNELS 3 Zrotation Yrotation Xrotation
					JOINT LeftArm
					{
						OFFSET 3.51628 0.59542 -0.30346
						CHANNELS 3 Zrotation Yrotation Xrotation
						JOINT LeftForeArm
						{
							OFFSET 4.76405 -0.00000 0.00000
							CHANNELS 3 Zrotation Yrotation Xrotation
							JOINT LeftHand
							{
								OFFSET 3.13759 -0.00000 -0.00000
								CHANNELS 3 Zrotation Yrotation Xrotation
								JOINT LeftFingerBase
								{
									OFFSET 0 0 0
									CHANNELS 3 Zrotation Yrotation Xrotation
									JOINT LeftHandIndex1
									{
										OFFSET 0.73226 -0.00000 -0.00000
										CHANNELS 3 Zrotation Yrotation Xrotation
										End Site
										{
											OFFSET 0.59037 -0.00000 -0.00000
										}
									}
								}
								JOINT LThumb
								{
									OFFSET 0 0 0
									CHANNELS 3 Zrotation Yrotation Xrotation
									End Site
									{
										OFFSET 0.59938 -0.00000 0.59938
									}
								}
							}
						}
					}
				}
				JOINT RightShoulder
				{
					OFFSET 0 0 0
					CHANNELS 3 Zrotation Yrotation Xrotation
					JOINT RightArm
					{
						OFFSET -3.30990 0.84213 -0.36430
						CHANNELS 3 Zrotation Yrotation Xrotation
						JOINT RightForeArm
						{
							OFFSET -5.10161 -0.00000 -0.00000
							CHANNELS 3 Zrotation Yrotation Xrotation
							JOINT RightHand
							{
								OFFSET -3.23267 -0.00000 -0.00000
								CHANNELS 3 Zrotation Yrotation Xrotation
								JOINT RightFingerBase
								{
									OFFSET 0 0 0
									CHANNELS 3 Zrotation Yrotation Xrotation
									JOINT RightHandIndex1
									{
										OFFSET -0.70200 -0.00000 -0.00000
										CHANNELS 3 Zrotation Yrotation Xrotation
										End Site
										{
											OFFSET -0.56597 -0.00000 -0.00000
										}
									}
								}
								JOINT RThumb
								{
									OFFSET 0 0 0
									CHANNELS 3 Zrotation Yrotation Xrotation
									End Site
									{
										OFFSET -0.57461 -0.00000 0.57461
									}
								}
							}
						}
					}
				}
			}
		}
	}
}
MOTION
Frames: 6
Frame Time: .0083333
-14.1077 13.1458 -0.0569 -173.4730 -1.5934 -169.0330 0.0000 0.0000 0.0000 -11.8513 16.0970 -73.0648 19.1844 19.9840 87.6148 -0.2132 -22.0941 -13.9213 0.1665 -2.6289 -7.2471 0.0000 0.0000 0.0000 3.3598 -11.9794 -56.8124 -17.4451 -19.8428 82.5113 -0.7597 -10.8632 -23.7575 -0.0445 -1.3608 3.7421 1.5318 5.6938 43.7398 4.9327 3.5550 11.3224 3.2719 -0.3621 -8.0608 -11.9930 -2.0753 -9.4997 22.3338 -4.0508 -35.0911 11.0633 -5.7482 -8.4502 0.0000 0.0000 0.0000 -50.3039 -3.3456 -7.5987 84.0314 -59.8650 -54.8334 -0.0000 0.0000 -39.4181 32.7238 16.6779 10.4488 -7.1250 0.0000 -0.0000 4.8641 49.5195 0.5432 0.0000 0.0000 0.0000 43.0878 16.4388 -37.0701 -76.0340 59.2500 -47.9355 0.0000 -0.0000 -35.5136 -67.2552 42.7378 -58.2946 7.1250 -0.0000 -0.0000 -13.5265 36.0636 -19.1618
-13.8142 13.0703 -0.1205 -173.3850 -1.0570 -168.7090 0.0000 0.0000 0.0000 -10.8386 16.1720 -72.0385 18.5975 19.9528 85.8963 0.3881 -21.9005 -18.2178 0.0121 -0.7095 -1.9499 0.0000 0.0000 0.0000 0.9346 -11.0797 -55.9630 -16.1440 -19.6397 78.6603 -0.6830 -12.5586 -24.7547 -0.2050 -2.9153 8.0431 1.5292 5.8572 43.7115 5.1396 3.8233 11.1865 3.3833 -0.2333 -8.2388 -12.1624 -1.9130 -9.5070 22.2409 -3.9224 -35.4205 11.1226 -5.7085 -8.6063 -0.0000 -0.0000 0.0000 -51.9260 -3.1491 -7.1980 84.9315 -59.9027 -55.6120 -0.0000 0.0000 -39.6045 33.6260 16.3815 10.6233 -7.1250 0.0000 -0.0000 5.7943 49.3373 0.6216 -0.0000 -0.0000 0.0000 43.4585 15.8701 -36.2375 -77.9321 59.4425 -49.5685 0.0000 -0.0000 -35.0486 -67.6126 42.3477 -58.5549 7.1250 -0.0000 -0.0000 -13.9107 36.0182 -19.7202
-13.5263 12.9573 -0.1750 -173.2660 -1.0221 -168.4370 0.0000 0.0000 0.0000 -11.1955 16.0889 -72.7163 18.2642 19.9276 84.9190 1.4068 -17.6379 -22.9835 0.0232 0.9841 2.7051 0.0000 0.0000 0.0000 -1.3367 -10.7729 -55.2870 -14.8298 -19.3467 74.7235 -0.5935 -14.2898 -25.8355 -0.3826 -3.9723 10.9989 2.1567 5.6473 43.7764 5.3793 3.8797 11.0733 3.2986 -0.2096 -8.3569 -12.5235 -1.8333 -9.6573 22.1109 -3.9232 -35.8110 11.2005 -5.7079 -8.7342 0.0000 0.0000 0.0000 -53.5169 -3.2081 -6.7194 85.3007 -59.9164 -55.9314 -0.0000 0.0000 -39.7320 34.1199 16.2162 10.7146 -7.1250 0.0000 -0.0000 6.3015 49.2331 0.6602 0.0000 0.0000 0.0000 43.5546 15.4360 -35.7741 -79.3508 59.5671 -50.7909 0.0000 -0.0000 -34.3598 -67.9899 42.1179 -58.9210 7.1250 -0.0000 -0.0000 -14.2148 36.1241 -20.1691
-13.2259 12.8739 -0.2315 -173.2860 -0.9373 -168.3630 0.0000 0.0000 0.0000 -12.4906 15.9782 -74.4249 17.7771 19.8811 83.4882 2.2256 -9.6327 -26.8059 0.0795 1.8184 5.0041 0.0000 0.0000 0.0000 -3.5155 -10.2670 -54.2137 -13.4533 -18.9397 70.5275 -0.3348 -16.4274 -26.2164 -0.5414 -4.7141 13.0950 2.5950 5.5666 44.0176 5.5559 3.9608 11.0416 3.2331 -0.1937 -8.4413 -12.4495 -1.7121 -9.8146 21.7479 -3.9639 -36.3593 11.1262 -5.7839 -8.9441 0.0000 0.0000 0.0000 -54.7110 -3.4780 -6.2767 84.7479 -59.8955 -55.4531 -0.0000 0.0000 -39.6186 33.9099 15.9028 10.4365 -7.1250 0.0000 -0.0000 6.1044 48.8309 0.5788 0.0000 0.0000 0.0000 43.7127 15.1695 -35.5915 -80.6836 59.6695 -51.9407 0.0000 -0.0000 -33.8991 -68.4056 42.1202 -59.4525 7.1250 -0.0000 -0.0000 -14.4072 36.4548 -20.4648
-12.9219 12.8256 -0.2737 -173.4560 -0.6707 -168.4970 0.0000 0.0000 0.0000 -8.4669 15.7269 -73.2899 18.3896 19.9377 85.2868 1.5104 -13.4848 -22.5793 0.0301 1.1193 3.0772 0.0000 0.0000 0.0000 -5.4428 -10.1960 -53.1618 -12.1100 -18.4368 66.3370 -0.1170 -17.8566 -26.2727 -0.6953 -5.3304 14.8534 2.7141 5.6884 44.4699 5.7582 4.1014 11.0898 3.3345 -0.1773 -8.5257 -12.4032 -1.5564 -9.9507 21.3564 -3.9589 -36.8841 11.0471 -5.8292 -9.1621 0.0000 0.0000 0.0000 -55.7169 -3.8000 -5.7881 83.5525 -59.8423 -54.4192 -0.0000 0.0000 -39.7503 33.8477 15.4401 10.1233 -7.1250 0.0000 -0.0000 6.0625 48.2810 0.4924 0.0000 0.0000 0.0000 43.6988 15.1230 -35.5268 -81.8587 59.7481 -52.9554 0.0000 -0.0000 -33.7289 -69.1041 42.3225 -60.4455 7.1250 -0.0000 -0.0000 -14.6176 37.1756 -20.8015
-12.6119 12.7900 -0.3191 -173.9470 -0.2661 -168.9780 0.0000 0.0000 0.0000 -3.8857 15.8281 -71.4168 19.0320 19.9775 87.1688 0.3555 -18.0640 -15.7522 0.0231 0.9817 2.6983 0.0000 0.0000 0.0000 -7.5492 -10.1152 -51.8410 -10.8618 -17.8668 62.3321 0.0155 -18.6962 -26.3330 -1.0095 -6.3929 17.9287 -2.3973 1.2248 44.8389 5.0801 6.0873 11.8239 3.7763 4.5573 -8.2526 -12.3311 -1.2213 -10.0291 20.8914 -3.7164 -37.3133 10.9349 -5.7550 -9.4093 -0.0000 -0.0000 0.0000 -56.6005 -3.9989 -5.6068 81.8467 -59.7473 -52.9450 -0.0000 0.0000 -40.1805 33.7087 14.8442 9.6990 -7.1250 0.0000 -0.0000 5.9486 47.5629 0.3774 -0.0000 -0.0000 0.0000 43.4003 15.5269 -35.3661 -82.8254 59.8046 -53.7907 0.0000 -0.0000 -33.7168 -69.8881 42.6056 -61.5896 7.1250 -0.0000 -0.0000 -14.8184 38.0307 -21.1259
